G04 Layer: DrillDrawingLayer*
G04 EasyEDA Pro v2.1.64.d1969c9c.217bcf, 2024-08-01 22:51:47*
G04 Gerber Generator version 0.3*
G04 Scale: 100 percent, Rotated: No, Reflected: No*
G04 Dimensions in millimeters*
G04 Leading zeros omitted, absolute positions, 3 integers and 5 decimals*
%FSLAX35Y35*%
%MOMM*%
%ADD10C,0.254*%
G75*


G04 Image Start*
G36*
G01X1411834Y-1880057D02*
G01X1411834Y-1883664D01*
G01X1415440D01*
G01X1448054D01*
G01Y-1916328D01*
G01X1415440D01*
G01Y-1883664D01*
G01X1411834D01*
G01Y-1919935D01*
G01X1451712D01*
G01Y-1880057D01*
G37*
G36*
G01X1412799Y-1577086D02*
G01X1412799Y-1580744D01*
G01X1416406D01*
G01X1449019D01*
G01Y-1613357D01*
G01X1416406D01*
G01Y-1580744D01*
G01X1412799D01*
G01Y-1616964D01*
G01X1452677D01*
G01Y-1577086D01*
G37*
G36*
G01X1413764Y-1280058D02*
G01X1413764Y-1283665D01*
G01X1417371D01*
G01X1450035D01*
G01Y-1316330D01*
G01X1417371D01*
G01Y-1283665D01*
G01X1413764D01*
G01Y-1319936D01*
G01X1453642D01*
G01Y-1280058D01*
G37*
G36*
G01X1415694Y-980084D02*
G01X1415694Y-983691D01*
G01X1419352D01*
G01X1451966D01*
G01Y-1016305D01*
G01X1419352D01*
G01Y-983691D01*
G01X1415694D01*
G01Y-1019962D01*
G01X1455572D01*
G01Y-980084D01*
G37*
G36*
G01X1417676Y-680060D02*
G01X1417676Y-683666D01*
G01X1421282D01*
G01X1453947D01*
G01Y-716331D01*
G01X1421282D01*
G01Y-683666D01*
G01X1417676D01*
G01Y-719938D01*
G01X1457554D01*
G01Y-680060D01*
G37*
G36*
G01X9599981Y-1880057D02*
G01X9599981Y-1883664D01*
G01X9603638D01*
G01X9636252D01*
G01Y-1916328D01*
G01X9603638D01*
G01Y-1883664D01*
G01X9599981D01*
G01Y-1919935D01*
G01X9639859D01*
G01Y-1880057D01*
G37*
G36*
G01X9600997Y-1577086D02*
G01X9600997Y-1580744D01*
G01X9604604D01*
G01X9637217D01*
G01Y-1613357D01*
G01X9604604D01*
G01Y-1580744D01*
G01X9600997D01*
G01Y-1616964D01*
G01X9640875D01*
G01Y-1577086D01*
G37*
G36*
G01X9601962Y-1280058D02*
G01X9601962Y-1283665D01*
G01X9605569D01*
G01X9638182D01*
G01Y-1316330D01*
G01X9605569D01*
G01Y-1283665D01*
G01X9601962D01*
G01Y-1319936D01*
G01X9641840D01*
G01Y-1280058D01*
G37*
G36*
G01X9603892Y-980084D02*
G01X9603892Y-983691D01*
G01X9607550D01*
G01X9640164D01*
G01Y-1016305D01*
G01X9607550D01*
G01Y-983691D01*
G01X9603892D01*
G01Y-1019962D01*
G01X9643770D01*
G01Y-980084D01*
G37*
G36*
G01X9605874Y-680060D02*
G01X9605874Y-683666D01*
G01X9609480D01*
G01X9642094D01*
G01Y-716331D01*
G01X9609480D01*
G01Y-683666D01*
G01X9605874D01*
G01Y-719938D01*
G01X9645752D01*
G01Y-680060D01*
G37*
G04 Image End*
G54D10*

M02*
