G04 Layer: TopSilkscreenLayer*
G04 EasyEDA Pro v2.1.64.d1969c9c.217bcf, 2024-08-01 22:51:47*
G04 Gerber Generator version 0.3*
G04 Scale: 100 percent, Rotated: No, Reflected: No*
G04 Dimensions in millimeters*
G04 Leading zeros omitted, absolute positions, 3 integers and 5 decimals*
%FSLAX35Y35*%
%MOMM*%
%ADD10C,0.203*%
%ADD11C,0.1*%
G75*


G04 Text Start*
G54D10*
G01X3843510Y-585370D02*
G01X3834620Y-567590D01*
G01X3816840Y-549810D01*
G01X3799060Y-540920D01*
G01X3763500D01*
G01X3745720Y-549810D01*
G01X3727940Y-567590D01*
G01X3719050Y-585370D01*
G01X3710160Y-612040D01*
G01Y-656490D01*
G01X3719050Y-683160D01*
G01X3727940Y-700940D01*
G01X3745720Y-718720D01*
G01X3763500Y-727610D01*
G01X3799060D01*
G01X3816840Y-718720D01*
G01X3834620Y-700940D01*
G01X3843510Y-683160D01*
G01X3950952Y-603150D02*
G01X3933172Y-612040D01*
G01X3915392Y-629820D01*
G01X3906502Y-656490D01*
G01Y-674270D01*
G01X3915392Y-700940D01*
G01X3933172Y-718720D01*
G01X3950952Y-727610D01*
G01X3977622D01*
G01X3995402Y-718720D01*
G01X4013182Y-700940D01*
G01X4022072Y-674270D01*
G01Y-656490D01*
G01X4013182Y-629820D01*
G01X3995402Y-612040D01*
G01X3977622Y-603150D01*
G01X3950952D01*
G01X4085064Y-603150D02*
G01X4085064Y-727610D01*
G01X4085064Y-638710D02*
G01X4111734Y-612040D01*
G01X4129514Y-603150D01*
G01X4156184D01*
G01X4173964Y-612040D01*
G01X4182854Y-638710D01*
G01Y-727610D01*
G01X4245846Y-603150D02*
G01X4245846Y-727610D01*
G01X4245846Y-638710D02*
G01X4272516Y-612040D01*
G01X4290296Y-603150D01*
G01X4316966D01*
G01X4334746Y-612040D01*
G01X4343636Y-638710D01*
G01Y-727610D01*
G01X4406628Y-656490D02*
G01X4513308Y-656490D01*
G01Y-638710D01*
G01X4504418Y-620930D01*
G01X4495528Y-612040D01*
G01X4477748Y-603150D01*
G01X4451078D01*
G01X4433298Y-612040D01*
G01X4415518Y-629820D01*
G01X4406628Y-656490D01*
G01Y-674270D01*
G01X4415518Y-700940D01*
G01X4433298Y-718720D01*
G01X4451078Y-727610D01*
G01X4477748D01*
G01X4495528Y-718720D01*
G01X4513308Y-700940D01*
G01X4682980Y-629820D02*
G01X4665200Y-612040D01*
G01X4647420Y-603150D01*
G01X4620750D01*
G01X4602970Y-612040D01*
G01X4585190Y-629820D01*
G01X4576300Y-656490D01*
G01Y-674270D01*
G01X4585190Y-700940D01*
G01X4602970Y-718720D01*
G01X4620750Y-727610D01*
G01X4647420D01*
G01X4665200Y-718720D01*
G01X4682980Y-700940D01*
G01X4772642Y-540920D02*
G01X4772642Y-692050D01*
G01X4781532Y-718720D01*
G01X4799312Y-727610D01*
G01X4817092D01*
G01X4745972Y-603150D02*
G01X4808202Y-603150D01*
G01X4924534Y-603150D02*
G01X4906754Y-612040D01*
G01X4888974Y-629820D01*
G01X4880084Y-656490D01*
G01Y-674270D01*
G01X4888974Y-700940D01*
G01X4906754Y-718720D01*
G01X4924534Y-727610D01*
G01X4951204D01*
G01X4968984Y-718720D01*
G01X4986764Y-700940D01*
G01X4995654Y-674270D01*
G01Y-656490D01*
G01X4986764Y-629820D01*
G01X4968984Y-612040D01*
G01X4951204Y-603150D01*
G01X4924534D01*
G01X5058646Y-603150D02*
G01X5058646Y-727610D01*
G01X5058646Y-656490D02*
G01X5067536Y-629820D01*
G01X5085316Y-612040D01*
G01X5103096Y-603150D01*
G01X5129766D01*
G01X5192758Y-647600D02*
G01X5352778Y-647600D01*
G01X5415770Y-540920D02*
G01X5415770Y-727610D01*
G01X5415770Y-540920D02*
G01X5478000Y-540920D01*
G01X5504670Y-549810D01*
G01X5522450Y-567590D01*
G01X5531340Y-585370D01*
G01X5540230Y-612040D01*
G01Y-656490D01*
G01X5531340Y-683160D01*
G01X5522450Y-700940D01*
G01X5504670Y-718720D01*
G01X5478000Y-727610D01*
G01X5415770D01*
G01X5727682Y-567590D02*
G01X5709902Y-549810D01*
G01X5683232Y-540920D01*
G01X5647672D01*
G01X5621002Y-549810D01*
G01X5603222Y-567590D01*
G01Y-585370D01*
G01X5612112Y-603150D01*
G01X5621002Y-612040D01*
G01X5638782Y-620930D01*
G01X5692122Y-638710D01*
G01X5709902Y-647600D01*
G01X5718792Y-656490D01*
G01X5727682Y-674270D01*
G01Y-700940D01*
G01X5709902Y-718720D01*
G01X5683232Y-727610D01*
G01X5647672D01*
G01X5621002Y-718720D01*
G01X5603222Y-700940D01*
G01X5790674Y-540920D02*
G01X5790674Y-727610D01*
G01X5853666Y-647600D02*
G01X6013686Y-647600D01*
G01X6147798Y-540920D02*
G01X6076678Y-727610D01*
G01X6147798Y-540920D02*
G01X6218918Y-727610D01*
G01X6103348Y-665380D02*
G01X6192248Y-665380D01*
G01X6379700Y-629820D02*
G01X6370810Y-612040D01*
G01X6344140Y-603150D01*
G01X6317470D01*
G01X6290800Y-612040D01*
G01X6281910Y-629820D01*
G01X6290800Y-647600D01*
G01X6308580Y-656490D01*
G01X6353030Y-665380D01*
G01X6370810Y-674270D01*
G01X6379700Y-692050D01*
G01Y-700940D01*
G01X6370810Y-718720D01*
G01X6344140Y-727610D01*
G01X6317470D01*
G01X6290800Y-718720D01*
G01X6281910Y-700940D01*
G01X6549372Y-603150D02*
G01X6549372Y-727610D01*
G01X6549372Y-629820D02*
G01X6531592Y-612040D01*
G01X6513812Y-603150D01*
G01X6487142D01*
G01X6469362Y-612040D01*
G01X6451582Y-629820D01*
G01X6442692Y-656490D01*
G01Y-674270D01*
G01X6451582Y-700940D01*
G01X6469362Y-718720D01*
G01X6487142Y-727610D01*
G01X6513812D01*
G01X6531592Y-718720D01*
G01X6549372Y-700940D01*
G01X6612364Y-603150D02*
G01X6612364Y-789840D01*
G01X6612364Y-629820D02*
G01X6630144Y-612040D01*
G01X6647924Y-603150D01*
G01X6674594D01*
G01X6692374Y-612040D01*
G01X6710154Y-629820D01*
G01X6719044Y-656490D01*
G01Y-674270D01*
G01X6710154Y-700940D01*
G01X6692374Y-718720D01*
G01X6674594Y-727610D01*
G01X6647924D01*
G01X6630144Y-718720D01*
G01X6612364Y-700940D01*
G01X6808706Y-540920D02*
G01X6808706Y-692050D01*
G01X6817596Y-718720D01*
G01X6835376Y-727610D01*
G01X6853156D01*
G01X6782036Y-603150D02*
G01X6844266Y-603150D01*
G01X6916148Y-656490D02*
G01X7022828Y-656490D01*
G01Y-638710D01*
G01X7013938Y-620930D01*
G01X7005048Y-612040D01*
G01X6987268Y-603150D01*
G01X6960598D01*
G01X6942818Y-612040D01*
G01X6925038Y-629820D01*
G01X6916148Y-656490D01*
G01Y-674270D01*
G01X6925038Y-700940D01*
G01X6942818Y-718720D01*
G01X6960598Y-727610D01*
G01X6987268D01*
G01X7005048Y-718720D01*
G01X7022828Y-700940D01*
G01X7085820Y-603150D02*
G01X7085820Y-727610D01*
G01X7085820Y-656490D02*
G01X7094710Y-629820D01*
G01X7112490Y-612040D01*
G01X7130270Y-603150D01*
G01X7156940D01*
G54D11*
G01X3705010Y-877426D02*
G01X3716694Y-871584D01*
G01X3734728Y-853804D01*
G01Y-978518D01*
G01X3844456Y-853804D02*
G01X3785020Y-853804D01*
G01X3779178Y-907144D01*
G01X3785020Y-901302D01*
G01X3802800Y-895206D01*
G01X3820834D01*
G01X3838614Y-901302D01*
G01X3850298Y-913240D01*
G01X3856394Y-931020D01*
G01Y-942704D01*
G01X3850298Y-960738D01*
G01X3838614Y-972422D01*
G01X3820834Y-978518D01*
G01X3802800D01*
G01X3785020Y-972422D01*
G01X3779178Y-966580D01*
G01X3773336Y-954642D01*
G01X3895002Y-895206D02*
G01X3895002Y-1019920D01*
G01X3895002Y-913240D02*
G01X3906686Y-901302D01*
G01X3918624Y-895206D01*
G01X3936404D01*
G01X3948342Y-901302D01*
G01X3960280Y-913240D01*
G01X3966122Y-931020D01*
G01Y-942704D01*
G01X3960280Y-960738D01*
G01X3948342Y-972422D01*
G01X3936404Y-978518D01*
G01X3918624D01*
G01X3906686Y-972422D01*
G01X3895002Y-960738D01*
G01X3710852Y-1083420D02*
G01X3710852Y-1077578D01*
G01X3716694Y-1065640D01*
G01X3722790Y-1059798D01*
G01X3734728Y-1053702D01*
G01X3758350D01*
G01X3770288Y-1059798D01*
G01X3776130Y-1065640D01*
G01X3782226Y-1077578D01*
G01Y-1089262D01*
G01X3776130Y-1101200D01*
G01X3764192Y-1118980D01*
G01X3705010Y-1178416D01*
G01X3788068D01*
G01X3826676Y-1053702D02*
G01X3826676Y-1178416D01*
G01X3936404Y-1095358D02*
G01X3936404Y-1178416D01*
G01X3936404Y-1113138D02*
G01X3924466Y-1101200D01*
G01X3912782Y-1095358D01*
G01X3894748D01*
G01X3883064Y-1101200D01*
G01X3871126Y-1113138D01*
G01X3865284Y-1130918D01*
G01Y-1142856D01*
G01X3871126Y-1160636D01*
G01X3883064Y-1172574D01*
G01X3894748Y-1178416D01*
G01X3912782D01*
G01X3924466Y-1172574D01*
G01X3936404Y-1160636D01*
G01X3980854Y-1095358D02*
G01X4016414Y-1178416D01*
G01X4051974Y-1095358D02*
G01X4016414Y-1178416D01*
G01X4004476Y-1202292D01*
G01X3992792Y-1213976D01*
G01X3980854Y-1220072D01*
G01X3975012D01*
G01X4090582Y-1130918D02*
G01X4161702Y-1130918D01*
G01Y-1118980D01*
G01X4155860Y-1107296D01*
G01X4149764Y-1101200D01*
G01X4138080Y-1095358D01*
G01X4120046D01*
G01X4108362Y-1101200D01*
G01X4096424Y-1113138D01*
G01X4090582Y-1130918D01*
G01Y-1142856D01*
G01X4096424Y-1160636D01*
G01X4108362Y-1172574D01*
G01X4120046Y-1178416D01*
G01X4138080D01*
G01X4149764Y-1172574D01*
G01X4161702Y-1160636D01*
G01X4200310Y-1095358D02*
G01X4200310Y-1178416D01*
G01X4200310Y-1130918D02*
G01X4206152Y-1113138D01*
G01X4218090Y-1101200D01*
G01X4229774Y-1095358D01*
G01X4247808D01*
G01X3705010Y-1277476D02*
G01X3716694Y-1271634D01*
G01X3734728Y-1253854D01*
G01Y-1378314D01*
G01X3773336Y-1295256D02*
G01X3773336Y-1378314D01*
G01X3773336Y-1319132D02*
G01X3791116Y-1301352D01*
G01X3802800Y-1295256D01*
G01X3820834D01*
G01X3832518Y-1301352D01*
G01X3838614Y-1319132D01*
G01Y-1378314D01*
G01X3838614Y-1319132D02*
G01X3856394Y-1301352D01*
G01X3868332Y-1295256D01*
G01X3886112D01*
G01X3897796Y-1301352D01*
G01X3903892Y-1319132D01*
G01Y-1378314D01*
G01X3942500Y-1295256D02*
G01X3942500Y-1378314D01*
G01X3942500Y-1319132D02*
G01X3960280Y-1301352D01*
G01X3971964Y-1295256D01*
G01X3989998D01*
G01X4001682Y-1301352D01*
G01X4007778Y-1319132D01*
G01Y-1378314D01*
G01X4007778Y-1319132D02*
G01X4025558Y-1301352D01*
G01X4037496Y-1295256D01*
G01X4055276D01*
G01X4066960Y-1301352D01*
G01X4073056Y-1319132D01*
G01Y-1378314D01*
G01X4244506Y-1295256D02*
G01X4244506Y-1419970D01*
G01X4244506Y-1313036D02*
G01X4256444Y-1301352D01*
G01X4268382Y-1295256D01*
G01X4286162D01*
G01X4298100Y-1301352D01*
G01X4309784Y-1313036D01*
G01X4315880Y-1330816D01*
G01Y-1342754D01*
G01X4309784Y-1360534D01*
G01X4298100Y-1372472D01*
G01X4286162Y-1378314D01*
G01X4268382D01*
G01X4256444Y-1372472D01*
G01X4244506Y-1360534D01*
G01X4354488Y-1253854D02*
G01X4360330Y-1259696D01*
G01X4366172Y-1253854D01*
G01X4360330Y-1247758D01*
G01X4354488Y-1253854D01*
G01X4360330Y-1295256D02*
G01X4360330Y-1378314D01*
G01X4422560Y-1253854D02*
G01X4422560Y-1354692D01*
G01X4428402Y-1372472D01*
G01X4440340Y-1378314D01*
G01X4452278D01*
G01X4404780Y-1295256D02*
G01X4446182Y-1295256D01*
G01X4562006Y-1313036D02*
G01X4550068Y-1301352D01*
G01X4538384Y-1295256D01*
G01X4520350D01*
G01X4508666Y-1301352D01*
G01X4496728Y-1313036D01*
G01X4490886Y-1330816D01*
G01Y-1342754D01*
G01X4496728Y-1360534D01*
G01X4508666Y-1372472D01*
G01X4520350Y-1378314D01*
G01X4538384D01*
G01X4550068Y-1372472D01*
G01X4562006Y-1360534D01*
G01X4600614Y-1253854D02*
G01X4600614Y-1378314D01*
G01X4600614Y-1319132D02*
G01X4618394Y-1301352D01*
G01X4630078Y-1295256D01*
G01X4648112D01*
G01X4659796Y-1301352D01*
G01X4665892Y-1319132D01*
G01Y-1378314D01*
G01X3764192Y-1453752D02*
G01X3764192Y-1548748D01*
G01X3758350Y-1566528D01*
G01X3752508Y-1572624D01*
G01X3740570Y-1578466D01*
G01X3728632D01*
G01X3716694Y-1572624D01*
G01X3710852Y-1566528D01*
G01X3705010Y-1548748D01*
G01Y-1536810D01*
G01X3802800Y-1453752D02*
G01X3802800Y-1578466D01*
G01X3802800Y-1578466D02*
G01X3873920Y-1578466D01*
G01X4001428Y-1483470D02*
G01X3995586Y-1471532D01*
G01X3983648Y-1459594D01*
G01X3971710Y-1453752D01*
G01X3948088D01*
G01X3936150Y-1459594D01*
G01X3924212Y-1471532D01*
G01X3918370Y-1483470D01*
G01X3912528Y-1501250D01*
G01Y-1530968D01*
G01X3918370Y-1548748D01*
G01X3924212Y-1560686D01*
G01X3936150Y-1572624D01*
G01X3948088Y-1578466D01*
G01X3971710D01*
G01X3983648Y-1572624D01*
G01X3995586Y-1560686D01*
G01X4001428Y-1548748D01*
G01X4099218Y-1453752D02*
G01X4099218Y-1548748D01*
G01X4093376Y-1566528D01*
G01X4087534Y-1572624D01*
G01X4075596Y-1578466D01*
G01X4063658D01*
G01X4051720Y-1572624D01*
G01X4045878Y-1566528D01*
G01X4040036Y-1548748D01*
G01Y-1536810D01*
G01X4137826Y-1453752D02*
G01X4137826Y-1578466D01*
G01X4137826Y-1578466D02*
G01X4208946Y-1578466D01*
G01X4336454Y-1483470D02*
G01X4330612Y-1471532D01*
G01X4318674Y-1459594D01*
G01X4306736Y-1453752D01*
G01X4283114D01*
G01X4271176Y-1459594D01*
G01X4259238Y-1471532D01*
G01X4253396Y-1483470D01*
G01X4247554Y-1501250D01*
G01Y-1530968D01*
G01X4253396Y-1548748D01*
G01X4259238Y-1560686D01*
G01X4271176Y-1572624D01*
G01X4283114Y-1578466D01*
G01X4306736D01*
G01X4318674Y-1572624D01*
G01X4330612Y-1560686D01*
G01X4336454Y-1548748D01*
G01X4434244Y-1453752D02*
G01X4434244Y-1548748D01*
G01X4428402Y-1566528D01*
G01X4422560Y-1572624D01*
G01X4410622Y-1578466D01*
G01X4398684D01*
G01X4386746Y-1572624D01*
G01X4380904Y-1566528D01*
G01X4375062Y-1548748D01*
G01Y-1536810D01*
G01X4472852Y-1453752D02*
G01X4472852Y-1578466D01*
G01X4472852Y-1578466D02*
G01X4543972Y-1578466D01*
G01X4671480Y-1483470D02*
G01X4665638Y-1471532D01*
G01X4653700Y-1459594D01*
G01X4641762Y-1453752D01*
G01X4618140D01*
G01X4606202Y-1459594D01*
G01X4594264Y-1471532D01*
G01X4588422Y-1483470D01*
G01X4582580Y-1501250D01*
G01Y-1530968D01*
G01X4588422Y-1548748D01*
G01X4594264Y-1560686D01*
G01X4606202Y-1572624D01*
G01X4618140Y-1578466D01*
G01X4641762D01*
G01X4653700Y-1572624D01*
G01X4665638Y-1560686D01*
G01X4671480Y-1548748D01*
G01X4769270Y-1453752D02*
G01X4769270Y-1548748D01*
G01X4763428Y-1566528D01*
G01X4757586Y-1572624D01*
G01X4745648Y-1578466D01*
G01X4733710D01*
G01X4721772Y-1572624D01*
G01X4715930Y-1566528D01*
G01X4710088Y-1548748D01*
G01Y-1536810D01*
G01X4807878Y-1453752D02*
G01X4807878Y-1578466D01*
G01X4807878Y-1578466D02*
G01X4878998Y-1578466D01*
G01X5006506Y-1483470D02*
G01X5000664Y-1471532D01*
G01X4988726Y-1459594D01*
G01X4976788Y-1453752D01*
G01X4953166D01*
G01X4941228Y-1459594D01*
G01X4929290Y-1471532D01*
G01X4923448Y-1483470D01*
G01X4917606Y-1501250D01*
G01Y-1530968D01*
G01X4923448Y-1548748D01*
G01X4929290Y-1560686D01*
G01X4941228Y-1572624D01*
G01X4953166Y-1578466D01*
G01X4976788D01*
G01X4988726Y-1572624D01*
G01X5000664Y-1560686D01*
G01X5006506Y-1548748D01*
G01X3746412Y-1653650D02*
G01X3746412Y-1778364D01*
G01X3705010Y-1653650D02*
G01X3788068Y-1653650D01*
G01X3826676Y-1653650D02*
G01X3826676Y-1778364D01*
G01X3826676Y-1719182D02*
G01X3844456Y-1701148D01*
G01X3856140Y-1695306D01*
G01X3874174D01*
G01X3885858Y-1701148D01*
G01X3891954Y-1719182D01*
G01Y-1778364D01*
G01X3930562Y-1653650D02*
G01X3936404Y-1659746D01*
G01X3942246Y-1653650D01*
G01X3936404Y-1647808D01*
G01X3930562Y-1653650D01*
G01X3936404Y-1695306D02*
G01X3936404Y-1778364D01*
G01X4051974Y-1713086D02*
G01X4040036Y-1701148D01*
G01X4028352Y-1695306D01*
G01X4010318D01*
G01X3998634Y-1701148D01*
G01X3986696Y-1713086D01*
G01X3980854Y-1730866D01*
G01Y-1742804D01*
G01X3986696Y-1760584D01*
G01X3998634Y-1772522D01*
G01X4010318Y-1778364D01*
G01X4028352D01*
G01X4040036Y-1772522D01*
G01X4051974Y-1760584D01*
G01X4090582Y-1653650D02*
G01X4090582Y-1778364D01*
G01X4149764Y-1695306D02*
G01X4090582Y-1754742D01*
G01X4114204Y-1730866D02*
G01X4155860Y-1778364D01*
G01X4194468Y-1695306D02*
G01X4194468Y-1778364D01*
G01X4194468Y-1719182D02*
G01X4212248Y-1701148D01*
G01X4223932Y-1695306D01*
G01X4241966D01*
G01X4253650Y-1701148D01*
G01X4259746Y-1719182D01*
G01Y-1778364D01*
G01X4298354Y-1730866D02*
G01X4369474Y-1730866D01*
G01Y-1719182D01*
G01X4363632Y-1707244D01*
G01X4357536Y-1701148D01*
G01X4345852Y-1695306D01*
G01X4327818D01*
G01X4316134Y-1701148D01*
G01X4304196Y-1713086D01*
G01X4298354Y-1730866D01*
G01Y-1742804D01*
G01X4304196Y-1760584D01*
G01X4316134Y-1772522D01*
G01X4327818Y-1778364D01*
G01X4345852D01*
G01X4357536Y-1772522D01*
G01X4369474Y-1760584D01*
G01X4473360Y-1713086D02*
G01X4467264Y-1701148D01*
G01X4449484Y-1695306D01*
G01X4431704D01*
G01X4413924Y-1701148D01*
G01X4408082Y-1713086D01*
G01X4413924Y-1725024D01*
G01X4425862Y-1730866D01*
G01X4455580Y-1736962D01*
G01X4467264Y-1742804D01*
G01X4473360Y-1754742D01*
G01Y-1760584D01*
G01X4467264Y-1772522D01*
G01X4449484Y-1778364D01*
G01X4431704D01*
G01X4413924Y-1772522D01*
G01X4408082Y-1760584D01*
G01X4577246Y-1713086D02*
G01X4571150Y-1701148D01*
G01X4553370Y-1695306D01*
G01X4535590D01*
G01X4517810Y-1701148D01*
G01X4511968Y-1713086D01*
G01X4517810Y-1725024D01*
G01X4529748Y-1730866D01*
G01X4559466Y-1736962D01*
G01X4571150Y-1742804D01*
G01X4577246Y-1754742D01*
G01Y-1760584D01*
G01X4571150Y-1772522D01*
G01X4553370Y-1778364D01*
G01X4535590D01*
G01X4517810Y-1772522D01*
G01X4511968Y-1760584D01*
G01X4621696Y-1707244D02*
G01X4615854Y-1713086D01*
G01X4621696Y-1719182D01*
G01X4627538Y-1713086D01*
G01X4621696Y-1707244D01*
G01X4621696Y-1748646D02*
G01X4615854Y-1754742D01*
G01X4621696Y-1760584D01*
G01X4627538Y-1754742D01*
G01X4621696Y-1748646D01*
G01X4834548Y-1653650D02*
G01X4816768Y-1659746D01*
G01X4805084Y-1677526D01*
G01X4798988Y-1707244D01*
G01Y-1725024D01*
G01X4805084Y-1754742D01*
G01X4816768Y-1772522D01*
G01X4834548Y-1778364D01*
G01X4846486D01*
G01X4864266Y-1772522D01*
G01X4876204Y-1754742D01*
G01X4882046Y-1725024D01*
G01Y-1707244D01*
G01X4876204Y-1677526D01*
G01X4864266Y-1659746D01*
G01X4846486Y-1653650D01*
G01X4834548D01*
G01X4926496Y-1748646D02*
G01X4920654Y-1754742D01*
G01X4926496Y-1760584D01*
G01X4932338Y-1754742D01*
G01X4926496Y-1748646D01*
G01X4970946Y-1677526D02*
G01X4982630Y-1671684D01*
G01X5000410Y-1653650D01*
G01Y-1778364D01*
G01X5039018Y-1677526D02*
G01X5050702Y-1671684D01*
G01X5068482Y-1653650D01*
G01Y-1778364D01*
G01X5107090Y-1695306D02*
G01X5107090Y-1778364D01*
G01X5107090Y-1719182D02*
G01X5124870Y-1701148D01*
G01X5136554Y-1695306D01*
G01X5154588D01*
G01X5166272Y-1701148D01*
G01X5172368Y-1719182D01*
G01Y-1778364D01*
G01X5172368Y-1719182D02*
G01X5190148Y-1701148D01*
G01X5202086Y-1695306D01*
G01X5219866D01*
G01X5231550Y-1701148D01*
G01X5237646Y-1719182D01*
G01Y-1778364D01*
G01X5276254Y-1695306D02*
G01X5276254Y-1778364D01*
G01X5276254Y-1719182D02*
G01X5294034Y-1701148D01*
G01X5305718Y-1695306D01*
G01X5323752D01*
G01X5335436Y-1701148D01*
G01X5341532Y-1719182D01*
G01Y-1778364D01*
G01X5341532Y-1719182D02*
G01X5359312Y-1701148D01*
G01X5371250Y-1695306D01*
G01X5389030D01*
G01X5400714Y-1701148D01*
G01X5406810Y-1719182D01*
G01Y-1778364D01*
G04 Text End*

M02*
