G04 Layer: BottomLayer*
G04 EasyEDA Pro v2.1.64.d1969c9c.217bcf, 2024-08-01 22:51:47*
G04 Gerber Generator version 0.3*
G04 Scale: 100 percent, Rotated: No, Reflected: No*
G04 Dimensions in millimeters*
G04 Leading zeros omitted, absolute positions, 3 integers and 5 decimals*
%FSLAX35Y35*%
%MOMM*%
%ADD10C,0.3*%
%ADD11C,0.61*%
G75*

G54D10*

G04 Copper Start*
G01X10559346Y-440654D02*
G01X10559346Y-1959346D01*
G01X640654D01*
G01Y-440654D01*
G01X10559346D01*
G01X10526386Y-1959346D02*
G01X10559346Y-1926386D01*
G01X10412118Y-1959346D02*
G01X10559346Y-1812117D01*
G01X10297849Y-1959346D02*
G01X10559346Y-1697849D01*
G01X10183581Y-1959346D02*
G01X10559346Y-1583581D01*
G01X10069313Y-1959346D02*
G01X10559346Y-1469312D01*
G01X9955044Y-1959346D02*
G01X10559346Y-1355044D01*
G01X9840776Y-1959346D02*
G01X10559346Y-1240775D01*
G01X9726507Y-1959346D02*
G01X10559346Y-1126507D01*
G01X9612239Y-1959346D02*
G01X10559346Y-1012239D01*
G01X9497971Y-1959346D02*
G01X10559346Y-897970D01*
G01X9383702Y-1959346D02*
G01X10559346Y-783702D01*
G01X9269434Y-1959346D02*
G01X10559346Y-669434D01*
G01X9155166Y-1959346D02*
G01X10559346Y-555165D01*
G01X9040897Y-1959346D02*
G01X10559346Y-440897D01*
G01X8926629Y-1959346D02*
G01X10445321Y-440654D01*
G01X8812360Y-1959346D02*
G01X10331053Y-440654D01*
G01X8698092Y-1959346D02*
G01X10216784Y-440654D01*
G01X8583824Y-1959346D02*
G01X10102516Y-440654D01*
G01X8469555Y-1959346D02*
G01X9988247Y-440654D01*
G01X8355287Y-1959346D02*
G01X9873979Y-440654D01*
G01X8241019Y-1959346D02*
G01X9759711Y-440654D01*
G01X8126750Y-1959346D02*
G01X9645442Y-440654D01*
G01X8012482Y-1959346D02*
G01X9531174Y-440654D01*
G01X7898213Y-1959346D02*
G01X9416906Y-440654D01*
G01X7783945Y-1959346D02*
G01X9302637Y-440654D01*
G01X7669677Y-1959346D02*
G01X9188369Y-440654D01*
G01X7555408Y-1959346D02*
G01X9074101Y-440654D01*
G01X7441140Y-1959346D02*
G01X8959832Y-440654D01*
G01X7326872Y-1959346D02*
G01X8845564Y-440654D01*
G01X7212603Y-1959346D02*
G01X8731295Y-440654D01*
G01X7098335Y-1959346D02*
G01X8617027Y-440654D01*
G01X6984066Y-1959346D02*
G01X8502759Y-440654D01*
G01X6869798Y-1959346D02*
G01X8388490Y-440654D01*
G01X6755530Y-1959346D02*
G01X8274222Y-440654D01*
G01X6641261Y-1959346D02*
G01X8159954Y-440654D01*
G01X6526993Y-1959346D02*
G01X8045685Y-440654D01*
G01X6412725Y-1959346D02*
G01X7931417Y-440654D01*
G01X6298456Y-1959346D02*
G01X7817148Y-440654D01*
G01X6184188Y-1959346D02*
G01X7702880Y-440654D01*
G01X6069920Y-1959346D02*
G01X7588612Y-440654D01*
G01X5955651Y-1959346D02*
G01X7474343Y-440654D01*
G01X5841383Y-1959346D02*
G01X7360075Y-440654D01*
G01X5727114Y-1959346D02*
G01X7245807Y-440654D01*
G01X5612846Y-1959346D02*
G01X7131538Y-440654D01*
G01X5498578Y-1959346D02*
G01X7017270Y-440654D01*
G01X5384309Y-1959346D02*
G01X6903001Y-440654D01*
G01X5270041Y-1959346D02*
G01X6788733Y-440654D01*
G01X5155773Y-1959346D02*
G01X6674465Y-440654D01*
G01X5041504Y-1959346D02*
G01X6560196Y-440654D01*
G01X4927236Y-1959346D02*
G01X6445928Y-440654D01*
G01X4812967Y-1959346D02*
G01X6331660Y-440654D01*
G01X4698699Y-1959346D02*
G01X6217391Y-440654D01*
G01X4584431Y-1959346D02*
G01X6103123Y-440654D01*
G01X4470162Y-1959346D02*
G01X5988854Y-440654D01*
G01X4355894Y-1959346D02*
G01X5874586Y-440654D01*
G01X4241626Y-1959346D02*
G01X5760318Y-440654D01*
G01X4127357Y-1959346D02*
G01X5646049Y-440654D01*
G01X4013089Y-1959346D02*
G01X5531781Y-440654D01*
G01X3898820Y-1959346D02*
G01X5417513Y-440654D01*
G01X3784552Y-1959346D02*
G01X5303244Y-440654D01*
G01X3670284Y-1959346D02*
G01X5188976Y-440654D01*
G01X3556015Y-1959346D02*
G01X5074708Y-440654D01*
G01X3441747Y-1959346D02*
G01X4960439Y-440654D01*
G01X3327479Y-1959346D02*
G01X4846171Y-440654D01*
G01X3213210Y-1959346D02*
G01X4731902Y-440654D01*
G01X3098942Y-1959346D02*
G01X4617634Y-440654D01*
G01X2984674Y-1959346D02*
G01X4503366Y-440654D01*
G01X2870405Y-1959346D02*
G01X4389097Y-440654D01*
G01X2756137Y-1959346D02*
G01X4274829Y-440654D01*
G01X2641868Y-1959346D02*
G01X4160561Y-440654D01*
G01X2527600Y-1959346D02*
G01X4046292Y-440654D01*
G01X2413332Y-1959346D02*
G01X3932024Y-440654D01*
G01X2299063Y-1959346D02*
G01X3817755Y-440654D01*
G01X2184795Y-1959346D02*
G01X3703487Y-440654D01*
G01X2070527Y-1959346D02*
G01X3589219Y-440654D01*
G01X1956258Y-1959346D02*
G01X3474950Y-440654D01*
G01X1841990Y-1959346D02*
G01X3360682Y-440654D01*
G01X1727721Y-1959346D02*
G01X3246414Y-440654D01*
G01X1613453Y-1959346D02*
G01X3132145Y-440654D01*
G01X1499185Y-1959346D02*
G01X3017877Y-440654D01*
G01X1384916Y-1959346D02*
G01X2903608Y-440654D01*
G01X1270648Y-1959346D02*
G01X2789340Y-440654D01*
G01X1156380Y-1959346D02*
G01X2675072Y-440654D01*
G01X1042111Y-1959346D02*
G01X2560803Y-440654D01*
G01X927843Y-1959346D02*
G01X2446535Y-440654D01*
G01X813574Y-1959346D02*
G01X2332267Y-440654D01*
G01X699306Y-1959346D02*
G01X2217998Y-440654D01*
G01X640654Y-1903730D02*
G01X2103730Y-440654D01*
G01X640654Y-1789461D02*
G01X1989462Y-440654D01*
G01X640654Y-1675193D02*
G01X1875193Y-440654D01*
G01X640654Y-1560925D02*
G01X1760925Y-440654D01*
G01X640654Y-1446656D02*
G01X1646656Y-440654D01*
G01X640654Y-1332388D02*
G01X1532388Y-440654D01*
G01X640654Y-1218120D02*
G01X1418120Y-440654D01*
G01X640654Y-1103851D02*
G01X1303851Y-440654D01*
G01X640654Y-989583D02*
G01X1189583Y-440654D01*
G01X640654Y-875314D02*
G01X1075315Y-440654D01*
G01X640654Y-761046D02*
G01X961046Y-440654D01*
G01X640654Y-646778D02*
G01X846778Y-440654D01*
G01X640654Y-532509D02*
G01X732509Y-440654D01*
G01X10559346Y-473614D02*
G01X10526386Y-440654D01*
G01X10559346Y-587883D02*
G01X10412118Y-440654D01*
G01X10559346Y-702151D02*
G01X10297849Y-440654D01*
G01X10559346Y-816419D02*
G01X10183581Y-440654D01*
G01X10559346Y-930688D02*
G01X10069313Y-440654D01*
G01X10559346Y-1044956D02*
G01X9955044Y-440654D01*
G01X10559346Y-1159225D02*
G01X9840776Y-440654D01*
G01X10559346Y-1273493D02*
G01X9726507Y-440654D01*
G01X10559346Y-1387761D02*
G01X9612239Y-440654D01*
G01X10559346Y-1502030D02*
G01X9497971Y-440654D01*
G01X10559346Y-1616298D02*
G01X9383702Y-440654D01*
G01X10559346Y-1730566D02*
G01X9269434Y-440654D01*
G01X10559346Y-1844835D02*
G01X9155166Y-440654D01*
G01X10559346Y-1959103D02*
G01X9040897Y-440654D01*
G01X10445321Y-1959346D02*
G01X8926629Y-440654D01*
G01X10331053Y-1959346D02*
G01X8812360Y-440654D01*
G01X10216784Y-1959346D02*
G01X8698092Y-440654D01*
G01X10102516Y-1959346D02*
G01X8583824Y-440654D01*
G01X9988247Y-1959346D02*
G01X8469555Y-440654D01*
G01X9873979Y-1959346D02*
G01X8355287Y-440654D01*
G01X9759711Y-1959346D02*
G01X8241019Y-440654D01*
G01X9645442Y-1959346D02*
G01X8126750Y-440654D01*
G01X9531174Y-1959346D02*
G01X8012482Y-440654D01*
G01X9416906Y-1959346D02*
G01X7898213Y-440654D01*
G01X9302637Y-1959346D02*
G01X7783945Y-440654D01*
G01X9188369Y-1959346D02*
G01X7669677Y-440654D01*
G01X9074101Y-1959346D02*
G01X7555408Y-440654D01*
G01X8959832Y-1959346D02*
G01X7441140Y-440654D01*
G01X8845564Y-1959346D02*
G01X7326872Y-440654D01*
G01X8731295Y-1959346D02*
G01X7212603Y-440654D01*
G01X8617027Y-1959346D02*
G01X7098335Y-440654D01*
G01X8502759Y-1959346D02*
G01X6984066Y-440654D01*
G01X8388490Y-1959346D02*
G01X6869798Y-440654D01*
G01X8274222Y-1959346D02*
G01X6755530Y-440654D01*
G01X8159954Y-1959346D02*
G01X6641261Y-440654D01*
G01X8045685Y-1959346D02*
G01X6526993Y-440654D01*
G01X7931417Y-1959346D02*
G01X6412725Y-440654D01*
G01X7817148Y-1959346D02*
G01X6298456Y-440654D01*
G01X7702880Y-1959346D02*
G01X6184188Y-440654D01*
G01X7588612Y-1959346D02*
G01X6069920Y-440654D01*
G01X7474343Y-1959346D02*
G01X5955651Y-440654D01*
G01X7360075Y-1959346D02*
G01X5841383Y-440654D01*
G01X7245807Y-1959346D02*
G01X5727114Y-440654D01*
G01X7131538Y-1959346D02*
G01X5612846Y-440654D01*
G01X7017270Y-1959346D02*
G01X5498578Y-440654D01*
G01X6903001Y-1959346D02*
G01X5384309Y-440654D01*
G01X6788733Y-1959346D02*
G01X5270041Y-440654D01*
G01X6674465Y-1959346D02*
G01X5155773Y-440654D01*
G01X6560196Y-1959346D02*
G01X5041504Y-440654D01*
G01X6445928Y-1959346D02*
G01X4927236Y-440654D01*
G01X6331660Y-1959346D02*
G01X4812967Y-440654D01*
G01X6217391Y-1959346D02*
G01X4698699Y-440654D01*
G01X6103123Y-1959346D02*
G01X4584431Y-440654D01*
G01X5988854Y-1959346D02*
G01X4470162Y-440654D01*
G01X5874586Y-1959346D02*
G01X4355894Y-440654D01*
G01X5760318Y-1959346D02*
G01X4241626Y-440654D01*
G01X5646049Y-1959346D02*
G01X4127357Y-440654D01*
G01X5531781Y-1959346D02*
G01X4013089Y-440654D01*
G01X5417513Y-1959346D02*
G01X3898820Y-440654D01*
G01X5303244Y-1959346D02*
G01X3784552Y-440654D01*
G01X5188976Y-1959346D02*
G01X3670284Y-440654D01*
G01X5074708Y-1959346D02*
G01X3556015Y-440654D01*
G01X4960439Y-1959346D02*
G01X3441747Y-440654D01*
G01X4846171Y-1959346D02*
G01X3327479Y-440654D01*
G01X4731902Y-1959346D02*
G01X3213210Y-440654D01*
G01X4617634Y-1959346D02*
G01X3098942Y-440654D01*
G01X4503366Y-1959346D02*
G01X2984674Y-440654D01*
G01X4389097Y-1959346D02*
G01X2870405Y-440654D01*
G01X4274829Y-1959346D02*
G01X2756137Y-440654D01*
G01X4160561Y-1959346D02*
G01X2641868Y-440654D01*
G01X4046292Y-1959346D02*
G01X2527600Y-440654D01*
G01X3932024Y-1959346D02*
G01X2413332Y-440654D01*
G01X3817755Y-1959346D02*
G01X2299063Y-440654D01*
G01X3703487Y-1959346D02*
G01X2184795Y-440654D01*
G01X3589219Y-1959346D02*
G01X2070527Y-440654D01*
G01X3474950Y-1959346D02*
G01X1956258Y-440654D01*
G01X3360682Y-1959346D02*
G01X1841990Y-440654D01*
G01X3246414Y-1959346D02*
G01X1727721Y-440654D01*
G01X3132145Y-1959346D02*
G01X1613453Y-440654D01*
G01X3017877Y-1959346D02*
G01X1499185Y-440654D01*
G01X2903608Y-1959346D02*
G01X1384916Y-440654D01*
G01X2789340Y-1959346D02*
G01X1270648Y-440654D01*
G01X2675072Y-1959346D02*
G01X1156380Y-440654D01*
G01X2560803Y-1959346D02*
G01X1042111Y-440654D01*
G01X2446535Y-1959346D02*
G01X927843Y-440654D01*
G01X2332267Y-1959346D02*
G01X813574Y-440654D01*
G01X2217998Y-1959346D02*
G01X699306Y-440654D01*
G01X2103730Y-1959346D02*
G01X640654Y-496270D01*
G01X1989462Y-1959346D02*
G01X640654Y-610539D01*
G01X1875193Y-1959346D02*
G01X640654Y-724807D01*
G01X1760925Y-1959346D02*
G01X640654Y-839075D01*
G01X1646656Y-1959346D02*
G01X640654Y-953344D01*
G01X1532388Y-1959346D02*
G01X640654Y-1067612D01*
G01X1418120Y-1959346D02*
G01X640654Y-1181880D01*
G01X1303851Y-1959346D02*
G01X640654Y-1296149D01*
G01X1189583Y-1959346D02*
G01X640654Y-1410417D01*
G01X1075315Y-1959346D02*
G01X640654Y-1524686D01*
G01X961046Y-1959346D02*
G01X640654Y-1638954D01*
G01X846778Y-1959346D02*
G01X640654Y-1753222D01*
G01X732509Y-1959346D02*
G01X640654Y-1867491D01*
G04 Copper End*

G04 Via Start*
G54D11*
G01X1431753Y-1899998D03*
G01X1432729Y-1597040D03*
G01X1433706Y-1300000D03*
G01X1435658Y-1000000D03*
G01X1437611Y-700001D03*
G01X9619940Y-1899998D03*
G01X9620916Y-1597040D03*
G01X9621893Y-1300000D03*
G01X9623846Y-1000000D03*
G01X9625799Y-700001D03*
G04 Via End*

M02*
